#N canvas 303 120 829 652 10;
#X obj 17 13 tgl 15 0 empty empty empty 17 7 0 10 -262144 -1 -1 1 1
;
#X msg 17 35 \; pd dsp \$1;
#X msg 173 58 open cosmic.wav;
#X obj 173 155 readsf~ 2;
#X obj 173 228 dac~ 1 2;
#X obj 236 187 bng 15 250 50 0 empty empty empty 17 7 0 10 -262144
-1 -1;
#X msg 118 95 start;
#X msg 91 120 stop;
#X obj 173 27 loadbang;
#X connect 0 0 1 0;
#X connect 2 0 3 0;
#X connect 3 0 4 0;
#X connect 3 1 4 1;
#X connect 3 2 5 0;
#X connect 6 0 3 0;
#X connect 7 0 3 0;
#X connect 8 0 2 0;
