#N canvas 370 270 761 503 10;
#X obj 50 26 udpreceive 9000;
#X obj 50 59 unpackOSC;
#X obj 50 92 routeOSC /wii;
#X obj 50 115 routeOSC /1;
#X obj 50 138 routeOSC /accel;
#X obj 50 161 routeOSC /pry;
#X obj 50 205 unpack f f f f;
#X floatatom 51 251 5 0 0 0 - - -;
#X floatatom 92 251 5 0 0 0 - - -;
#X floatatom 134 251 5 0 0 0 - - -;
#X floatatom 176 251 5 0 0 0 - - -;
#X obj 176 297 moses 0.7;
#X floatatom 227 322 5 0 0 0 - - -;
#X connect 0 0 1 0;
#X connect 1 0 2 0;
#X connect 2 0 3 0;
#X connect 3 0 4 0;
#X connect 4 0 5 0;
#X connect 5 0 6 0;
#X connect 6 0 7 0;
#X connect 6 1 8 0;
#X connect 6 2 9 0;
#X connect 6 3 10 0;
#X connect 10 0 11 0;
#X connect 11 1 12 0;
